<mxfile host="app.diagrams.net" modified="2023-04-12T08:33:33.268Z" agent="Mozilla/5.0 (Windows NT 10.0; Win64; x64) AppleWebKit/537.36 (KHTML, like Gecko) Chrome/112.0.0.0 Safari/537.36 Edg/112.0.1722.34" version="21.1.6" etag="RrGJI1g95tvKaMBk3aN7" type="github">
  <diagram name="第 1 页" id="PGOeTUiJXXEEhlVGNLzI">
    <mxGraphModel>
      <root>
        <mxCell id="0" />
        <mxCell id="1" parent="0" />
      </root>
    </mxGraphModel>
  </diagram>
</mxfile>
